<svg width="163" height="25" viewBox="0 0 163 25" fill="none" xmlns="http://www.w3.org/2000/svg">
<g clip-path="url(#clip0_2404_4352)">
<path d="M142.235 19.4852H139.909C139.503 19.4852 139.3 19.2911 139.3 18.9029V5.00736C139.3 4.80397 139.199 4.70226 138.996 4.70226H135.841C135.453 4.70226 135.26 4.50812 135.26 4.11983V2.23381C135.26 1.84552 135.453 1.65137 135.841 1.65137L146.303 1.65137C146.69 1.65137 146.883 1.84551 146.883 2.23381V4.11983C146.883 4.50812 146.69 4.70226 146.303 4.70226H143.147C142.926 4.70226 142.815 4.80397 142.815 5.00736V18.9029C142.815 19.2911 142.622 19.4852 142.235 19.4852Z" fill="white"/>
<path d="M128.045 19.4852H125.721C125.315 19.4852 125.112 19.2911 125.112 18.9029V5.00736C125.112 4.80397 125.01 4.70226 124.807 4.70226H121.652C121.265 4.70226 121.071 4.50812 121.071 4.11983V2.23381C121.071 1.84552 121.265 1.65137 121.652 1.65137L132.114 1.65137C132.501 1.65137 132.695 1.84551 132.695 2.23381V4.11983C132.695 4.50812 132.501 4.70226 132.114 4.70226H128.959C128.737 4.70226 128.627 4.80397 128.627 5.00736V18.9029C128.627 19.2911 128.433 19.4852 128.045 19.4852Z" fill="white"/>
<path d="M109.027 19.4852H106.371C106.039 19.4852 105.928 19.2911 106.039 18.9029L110.411 2.23381C110.54 1.84552 110.817 1.65137 111.241 1.65137H114.922C115.383 1.65137 115.66 1.84551 115.753 2.23381L120.125 18.9029C120.236 19.2911 120.125 19.4852 119.793 19.4852H117.136C116.933 19.4852 116.795 19.4482 116.721 19.3744C116.647 19.2819 116.592 19.1246 116.555 18.9029L115.78 15.8519H110.384L109.609 18.9029C109.572 19.1246 109.507 19.2819 109.415 19.3744C109.341 19.4482 109.212 19.4852 109.027 19.4852ZM113.04 5.00736L111.048 13.0229H115.144L113.151 5.00736H113.04Z" fill="white"/>
<path d="M90.3701 19.4852H86.6438C86.238 19.4852 86.0074 19.2911 85.952 18.9028L82.9906 2.23381C82.9354 1.84552 83.1291 1.65137 83.5719 1.65137L86.0052 1.65137C86.4295 1.65137 86.651 1.84552 86.6694 2.23381L88.524 15.5677C88.5331 15.6338 88.6272 15.6369 88.6408 15.5716L91.4217 2.15061C91.477 1.81778 91.6707 1.65137 92.0029 1.65137H95.3991C95.7496 1.65137 95.9526 1.80854 96.008 2.12287L98.8709 15.5756C98.8847 15.6407 98.9786 15.6373 98.9876 15.5712L100.816 2.26155C100.834 1.85476 101.055 1.65137 101.48 1.65137H103.913C104.356 1.65137 104.55 1.85476 104.494 2.26155L101.505 18.9028C101.45 19.2911 101.238 19.4852 100.869 19.4852H97.1149C96.7275 19.4852 96.5061 19.2911 96.4507 18.9028L93.8141 6.17386C93.801 6.11076 93.7112 6.11068 93.698 6.17373L91.0343 18.9028C90.9605 19.2911 90.739 19.4852 90.3701 19.4852Z" fill="white"/>
<path d="M63.2805 19.4852H60.6237C60.2915 19.4852 60.1808 19.2911 60.2915 18.9029L64.6643 2.23381C64.7933 1.84552 65.0701 1.65137 65.4944 1.65137H69.1753C69.6365 1.65137 69.9133 1.84551 70.0055 2.23381L74.3782 18.9029C74.4889 19.2911 74.3782 19.4852 74.046 19.4852H71.3892C71.1864 19.4852 71.0479 19.4482 70.9741 19.3744C70.9004 19.2819 70.845 19.1246 70.8081 18.9029L70.0332 15.8519H64.6365L63.8616 18.9029C63.8247 19.1246 63.7602 19.2819 63.6679 19.3744C63.5941 19.4482 63.4649 19.4852 63.2805 19.4852ZM67.2933 5.00736L65.3007 13.0229H69.3966L67.404 5.00736H67.2933Z" fill="white"/>
<path d="M47.6044 19.4852H45.252C44.8646 19.4852 44.6709 19.2911 44.6709 18.9029V2.23381C44.6709 1.84552 44.8646 1.65137 45.252 1.65137L51.8386 1.65137C53.2778 1.65137 54.4033 2.04891 55.215 2.84399C56.0268 3.63908 56.4328 4.75773 56.4328 6.19998V8.36335C56.4328 10.4527 55.6117 11.8395 53.9697 12.5237V12.6346L56.9309 18.8196C57.097 19.2634 56.9401 19.4852 56.4604 19.4852H54.2188C53.8866 19.4852 53.6468 19.4482 53.4992 19.3744C53.3516 19.3004 53.2317 19.1431 53.1394 18.9029L50.3719 12.912H48.5176C48.2963 12.912 48.1856 13.0137 48.1856 13.2171V18.9029C48.1856 19.2911 47.9919 19.4852 47.6044 19.4852ZM48.49 10.083H51.2022C51.7926 10.083 52.2262 9.96277 52.5028 9.72239C52.7796 9.46352 52.918 9.05674 52.918 8.50203V6.33865C52.918 5.76546 52.7796 5.34943 52.5028 5.09057C52.2262 4.83169 51.7926 4.70226 51.2022 4.70226H48.49C48.287 4.70226 48.1856 4.80397 48.1856 5.00736V9.77785C48.1856 9.98125 48.287 10.083 48.49 10.083Z" fill="white"/>
<path d="M36.4076 19.4852H34.083C33.677 19.4852 33.4742 19.2911 33.4742 18.9029V5.00736C33.4742 4.80397 33.3726 4.70226 33.1697 4.70226H30.0147C29.6273 4.70226 29.4336 4.50812 29.4336 4.11983V2.23381C29.4336 1.84552 29.6273 1.65137 30.0147 1.65137L40.4759 1.65137C40.8633 1.65137 41.0572 1.84551 41.0572 2.23381V4.11983C41.0572 4.50812 40.8633 4.70226 40.4759 4.70226H37.321C37.0996 4.70226 36.9889 4.80397 36.9889 5.00736V18.9029C36.9889 19.2911 36.7952 19.4852 36.4076 19.4852Z" fill="white"/>
<path d="M9.70225 19.4852H0.65247C0.265018 19.4852 0.071292 19.2911 0.071292 18.9029L0.0712891 2.23381C0.071289 1.84552 0.265016 1.65137 0.652467 1.65137L9.70225 1.65137C10.0712 1.65137 10.2558 1.84551 10.2558 2.23381V4.11983C10.2558 4.50812 10.0712 4.70226 9.70225 4.70226H3.91814C3.69674 4.70226 3.58603 4.80397 3.58603 5.00736L3.58604 8.61296C3.58604 8.81636 3.69674 8.91806 3.91814 8.91806H8.65058C9.03805 8.91806 9.23177 9.11221 9.23177 9.5005V11.3865C9.23177 11.7748 9.03805 11.969 8.65058 11.969H3.91814C3.69674 11.969 3.58604 12.0707 3.58604 12.2741V16.1293C3.58604 16.3327 3.69674 16.4344 3.91814 16.4344H9.70225C10.0712 16.4344 10.2558 16.6285 10.2558 17.0169V18.9029C10.2558 19.2911 10.0713 19.4852 9.70225 19.4852Z" fill="white"/>
<path d="M149.789 14.9367V14.3819C149.789 13.9937 149.982 13.7995 150.369 13.7995H152.722C153.109 13.7995 153.304 13.9937 153.304 14.3819V14.6038C153.304 15.3065 153.442 15.7872 153.719 16.046C153.995 16.3049 154.502 16.4344 155.241 16.4344H156.542C157.261 16.4344 157.759 16.2957 158.035 16.0183C158.331 15.7409 158.479 15.2232 158.479 14.4652V14.1323C158.479 13.5961 158.258 13.1893 157.814 12.912C157.39 12.6161 156.855 12.4405 156.21 12.385C155.563 12.3295 154.863 12.2278 154.107 12.0799C153.368 11.9135 152.677 11.7101 152.03 11.4697C151.385 11.2109 150.84 10.7209 150.397 9.99974C149.973 9.26013 149.761 8.31713 149.761 7.17072V6.19999C149.761 4.75775 150.166 3.63908 150.979 2.844C151.791 2.04891 152.916 1.65137 154.355 1.65137H157.123C158.581 1.65137 159.715 2.04891 160.527 2.84399C161.339 3.63908 161.745 4.75773 161.745 6.19998V6.72696C161.745 7.11525 161.55 7.3094 161.163 7.3094H158.81C158.423 7.3094 158.23 7.11525 158.23 6.72696V6.56054C158.23 5.83943 158.092 5.34943 157.814 5.09057C157.538 4.83169 157.031 4.70226 156.293 4.70226H155.212C154.457 4.70226 153.94 4.85019 153.663 5.14604C153.405 5.42339 153.275 5.9781 153.275 6.81017V7.33714C153.275 8.20618 154.032 8.70542 155.545 8.83485C157.114 8.96428 158.506 9.27861 159.724 9.77785C160.37 10.0552 160.905 10.5545 161.329 11.2756C161.773 11.9782 161.994 12.8842 161.994 13.9937V14.9367C161.994 16.3789 161.588 17.4976 160.775 18.2927C159.964 19.0878 158.838 19.4852 157.4 19.4852H154.383C152.944 19.4852 151.819 19.0878 151.006 18.2927C150.195 17.4976 149.789 16.3789 149.789 14.9367Z" fill="white"/>
<path d="M19.8605 13.4915C19.9165 13.3875 20.0654 13.3875 20.1215 13.4915L22.6346 18.2176C22.7665 18.45 23.0126 18.5935 23.2792 18.5935H25.7487C26.0907 18.5935 26.3048 18.2228 26.1344 17.9256L21.9246 10.5826C21.8462 10.4457 21.8458 10.2774 21.9237 10.1401L26.362 2.3176C26.5308 2.02038 26.3165 1.65137 25.9753 1.65137H23.61C23.3446 1.65137 23.0995 1.79346 22.9672 2.02397L20.1214 7.26689C20.0652 7.37037 19.917 7.37034 19.8608 7.26682L17.0183 2.02427C16.886 1.79359 16.6408 1.65137 16.3754 1.65137H14.01C13.6689 1.65137 13.4547 2.02029 13.6232 2.31751L18.0579 10.1376C18.1358 10.2749 18.1352 10.4432 18.0568 10.5801L13.3294 18.8172C13.1588 19.1143 13.3729 19.4852 13.7151 19.4852H16.19C16.4566 19.4852 16.7027 19.3418 16.8345 19.1095L19.8605 13.4915Z" fill="white"/>
<path d="M27.7695 20.7478C27.6373 20.5172 27.3921 20.375 27.1266 20.375H24.6369C24.2958 20.375 24.0816 20.7439 24.2502 21.0412L25.8505 23.863C25.9822 24.0954 26.2284 24.239 26.4951 24.239H29.0023C29.3443 24.239 29.5584 23.8683 29.388 23.5711L27.7695 20.7478Z" fill="#7ACB88"/>
</g>
<defs>
<clipPath id="clip0_2404_4352">
<rect width="162" height="24" fill="white" transform="translate(0.0712891 0.945312)"/>
</clipPath>
</defs>
</svg>
