<svg width="29" height="29" viewBox="0 0 29 29" fill="none" xmlns="http://www.w3.org/2000/svg">
<path d="M16.1834 14.9457L22.2884 8.89972C22.488 8.69578 22.609 8.42782 22.63 8.14324C22.6511 7.85866 22.5708 7.5758 22.4034 7.34472C22.3102 7.20585 22.1864 7.09019 22.0415 7.00664C21.8966 6.92309 21.7345 6.87387 21.5676 6.86277C21.4007 6.85166 21.2335 6.87896 21.0788 6.94258C20.9242 7.00619 20.7861 7.10442 20.6754 7.22972L14.5704 13.3347L8.46536 7.22972C8.35458 7.10442 8.21654 7.00619 8.06187 6.94258C7.90719 6.87896 7.73999 6.85166 7.57311 6.86277C7.40623 6.87387 7.24412 6.92309 7.09924 7.00664C6.95435 7.09019 6.83055 7.20585 6.73736 7.34472C6.57006 7.57592 6.48993 7.85884 6.51116 8.14342C6.53239 8.42801 6.65361 8.69591 6.85336 8.89972L12.9584 14.9467L6.85336 20.9937C6.65376 21.1977 6.53273 21.4656 6.51168 21.7502C6.49064 22.0348 6.57093 22.3176 6.73836 22.5487C6.83155 22.6876 6.95535 22.8033 7.10024 22.8868C7.24512 22.9704 7.40723 23.0196 7.57411 23.0307C7.74099 23.0418 7.90819 23.0145 8.06287 22.9509C8.21754 22.8873 8.35558 22.789 8.46636 22.6637L14.5714 16.5587L20.6764 22.6637C20.7871 22.789 20.9252 22.8873 21.0798 22.9509C21.2345 23.0145 21.4017 23.0418 21.5686 23.0307C21.7355 23.0196 21.8976 22.9704 22.0425 22.8868C22.1874 22.8033 22.3112 22.6876 22.4044 22.5487C22.5718 22.3176 22.6521 22.0348 22.631 21.7502C22.61 21.4656 22.489 21.1977 22.2894 20.9937L16.1834 14.9457Z" fill="#797980"/>
</svg>
