<svg width="21" height="20" viewBox="0 0 21 20" fill="none" xmlns="http://www.w3.org/2000/svg">
<path d="M16.6405 14.3882C18.0359 12.5921 18.6623 10.3162 18.3825 8.05915C18.1242 6.05817 17.188 4.20612 15.7299 2.81157C14.2719 1.41702 12.38 0.564186 10.3695 0.395152C9.22956 0.28077 8.07826 0.392037 6.98132 0.722598C5.88438 1.05316 4.86329 1.59654 3.97635 2.32172C3.08941 3.0469 2.35399 3.93967 1.81208 4.94907C1.27017 5.95846 0.932385 7.06471 0.818003 8.20465C0.703622 9.34459 0.814888 10.4959 1.14545 11.5928C1.47601 12.6898 2.01939 13.7109 2.74457 14.5978C3.46975 15.4847 4.36253 16.2202 5.37192 16.7621C6.38132 17.304 7.48756 17.6418 8.6275 17.7562C10.8938 18.0366 13.1811 17.4335 15.0145 16.0722L18.7555 19.3822C18.8586 19.4953 18.9841 19.5856 19.1241 19.6474C19.2641 19.7093 19.4155 19.7412 19.5685 19.7412C19.7215 19.7412 19.8729 19.7093 20.0129 19.6474C20.1529 19.5856 20.2784 19.4953 20.3815 19.3822C20.4946 19.2791 20.585 19.1535 20.6468 19.0135C20.7086 18.8735 20.7405 18.7222 20.7405 18.5692C20.7405 18.4161 20.7086 18.2648 20.6468 18.1248C20.585 17.9848 20.4946 17.8592 20.3815 17.7562L16.6405 14.3882ZM10.7765 15.4332C9.76824 15.5978 8.73519 15.5182 7.76405 15.201C6.79291 14.8839 5.91203 14.3384 5.19534 13.6103C4.47865 12.8822 3.94706 11.9929 3.6452 11.0169C3.34333 10.0409 3.27999 9.0067 3.4605 8.00115C3.67364 6.70763 4.28681 5.51344 5.2138 4.58645C6.14079 3.65946 7.33499 3.04629 8.6285 2.83315C9.63765 2.64692 10.6769 2.70887 11.6568 3.01366C12.6367 3.31844 13.5278 3.85692 14.2533 4.58269C14.9787 5.30846 15.5168 6.19976 15.8212 7.17976C16.1256 8.15976 16.1871 9.19908 16.0005 10.2082C15.7706 11.5101 15.1459 12.7098 14.211 13.6447C13.2762 14.5795 12.0764 15.2042 10.7745 15.4342L10.7765 15.4332Z" fill="#EFEFEF"/>
</svg>
